<svg width="19" height="16" viewBox="0 0 19 16" fill="current" xmlns="http://www.w3.org/2000/svg">
<path fill-rule="evenodd" clip-rule="evenodd" d="M13.7197 0.723576C13.7916 0.651671 13.8744 0.597418 13.9629 0.560818L14.7803 0.723536L14.7808 0.72407L18.5302 4.47288C18.8231 4.76575 18.8231 5.24062 18.5303 5.53354C18.2374 5.82646 17.7625 5.82649 17.4696 5.53362L15 3.06438V10.2539C15 10.6681 14.6642 11.0039 14.25 11.0039C13.8358 11.0039 13.5 10.6681 13.5 10.2539V3.06457L11.0303 5.53424C10.7374 5.82713 10.2626 5.82713 9.96967 5.53424C9.67678 5.24134 9.67678 4.76647 9.96967 4.47358L13.7197 0.723576ZM13.9629 0.560818L14.7754 0.718683C14.6401 0.585838 14.4546 0.503906 14.25 0.503906C14.1483 0.503906 14.0513 0.524146 13.9629 0.560818ZM1.5 8.00391C1.08579 8.00391 0.75 8.33969 0.75 8.75391C0.75 9.16812 1.08579 9.50391 1.5 9.50391H8.24991C8.66412 9.50391 8.99991 9.16812 8.99991 8.75391C8.99991 8.33969 8.66412 8.00391 8.24991 8.00391H1.5ZM0.75 2.75391C0.75 2.33969 1.08579 2.00391 1.5 2.00391H6.74991C7.16412 2.00391 7.49991 2.33969 7.49991 2.75391C7.49991 3.16812 7.16412 3.50391 6.74991 3.50391H1.5C1.08579 3.50391 0.75 3.16812 0.75 2.75391ZM1.5 14.0039C1.08579 14.0039 0.75 14.3397 0.75 14.7539C0.75 15.1681 1.08579 15.5039 1.5 15.5039H14.2499C14.6641 15.5039 14.9999 15.1681 14.9999 14.7539C14.9999 14.3397 14.6641 14.0039 14.2499 14.0039H1.5Z" fill="current"/>
</svg>
