<svg width="19" height="16" viewBox="0 0 19 16" fill="none" xmlns="http://www.w3.org/2000/svg">
<path fill-rule="evenodd" clip-rule="evenodd" d="M0.75 0.753906C0.75 0.339693 1.08579 0.00390625 1.5 0.00390625H14.2499C14.6641 0.00390625 14.9999 0.339693 14.9999 0.753906C14.9999 1.16812 14.6641 1.50391 14.2499 1.50391H1.5C1.08579 1.50391 0.75 1.16812 0.75 0.753906ZM14.25 4.50391C14.6642 4.50391 15 4.83969 15 5.25391L14.7754 14.7891C14.6401 14.922 14.4546 15.0039 14.25 15.0039C14.1483 15.0039 14.0513 14.9837 13.9629 14.947C13.8744 14.9104 13.7916 14.8561 13.7197 14.7842L9.96967 11.0342C9.67678 10.7413 9.67678 10.2665 9.96967 9.97358C10.2626 9.68068 10.7374 9.68068 11.0303 9.97358L13.5 12.4432V5.25391C13.5 4.83969 13.8358 4.50391 14.25 4.50391ZM15 5.25391L14.781 14.7836L18.5302 11.0348C18.8231 10.742 18.8231 10.2671 18.5303 9.97417C18.2374 9.68126 17.7625 9.68123 17.4696 9.9741L15 12.4434V5.25391ZM1.5 6.00391C1.08579 6.00391 0.75 6.33969 0.75 6.75391C0.75 7.16812 1.08579 7.50391 1.5 7.50391H8.24991C8.66412 7.50391 8.99991 7.16812 8.99991 6.75391C8.99991 6.33969 8.66412 6.00391 8.24991 6.00391H1.5ZM1.5 12.0039C1.08579 12.0039 0.75 12.3397 0.75 12.7539C0.75 13.1681 1.08579 13.5039 1.5 13.5039H6.75C7.16421 13.5039 7.5 13.1681 7.5 12.7539C7.5 12.3397 7.16421 12.0039 6.75 12.0039H1.5Z" fill="current"/>
</svg>
