<svg width="16" height="16" viewBox="0 0 16 16" fill="none" xmlns="http://www.w3.org/2000/svg">
<path fill-rule="evenodd" clip-rule="evenodd" d="M7.33301 2.66666C4.75568 2.66666 2.66634 4.756 2.66634 7.33333C2.66634 9.91066 4.75568 12 7.33301 12C9.91034 12 11.9997 9.91066 11.9997 7.33333C11.9997 4.756 9.91034 2.66666 7.33301 2.66666ZM1.33301 7.33333C1.33301 4.01962 4.0193 1.33333 7.33301 1.33333C10.6467 1.33333 13.333 4.01962 13.333 7.33333C13.333 10.647 10.6467 13.3333 7.33301 13.3333C4.0193 13.3333 1.33301 10.647 1.33301 7.33333Z" fill="current"/>
<path fill-rule="evenodd" clip-rule="evenodd" d="M10.6289 10.6286C10.8892 10.3682 11.3113 10.3682 11.5717 10.6286L14.4717 13.5286C14.732 13.7889 14.732 14.211 14.4717 14.4714C14.2113 14.7317 13.7892 14.7317 13.5289 14.4714L10.6289 11.5714C10.3685 11.311 10.3685 10.8889 10.6289 10.6286Z" fill="current"/>
</svg>
